<svg width="196" height="129" viewBox="0 0 196 129" fill="none" xmlns="http://www.w3.org/2000/svg">
<path fill-rule="evenodd" clip-rule="evenodd" d="M149.129 24.1585C151.643 24.9504 151.053 25.0012 154.543 21.8955C157.564 19.0879 155.703 19.5131 159.737 19.8123C163.403 20.1346 168.876 19.6001 171.678 19.8725C171.724 22.0657 167.554 31.2964 167.024 34.5251C167.796 34.54 168.413 34.5538 169.245 34.5407C170.542 34.5359 170.292 34.6542 171.184 33.3157C173.186 30.4561 179.609 21.3021 180.998 19.7256C183.776 19.6296 191.363 19.8478 193.421 18.7184C194.39 18.1831 195.892 17.1646 194.986 16.0672C192.729 13.3975 186.446 14.3158 182.154 14.4435C180.428 14.5003 180.831 14.3856 179.779 12.9742C178.606 11.4703 170.443 0.379326 169.587 0.0229458C169.249 -0.0455859 166.933 0.0609831 166.471 0.0503995C166.816 1.26178 167.283 2.56678 167.782 3.77994L170.442 10.9922C170.974 12.1139 171.407 13.5115 171.722 14.6596C169.718 14.6182 167.772 14.7015 165.705 14.6901C155.464 14.6626 158.229 16.6344 154.17 13.063C151.864 11.1034 151.154 9.60737 148.903 11.1351C151.704 15.9126 151.814 19.6786 149.129 24.1585ZM148.01 17.1321C149.091 17.001 149.397 18.6105 148.221 18.864L146.55 19.0465C145.56 19.2097 145.099 17.5967 146.368 17.3757L148.01 17.1321ZM1.61115 127.74C1.0976 128.747 -0.429512 127.944 0.115485 126.998L0.472225 126.143C1.0183 125.043 2.5122 125.938 2.03076 126.854L1.61115 127.74ZM4.28456 122.272C3.76924 123.28 2.24428 122.476 2.69495 121.5L3.49883 119.974C4.01274 118.966 5.50979 119.705 4.99447 120.714L4.28456 122.272ZM7.34185 116.165C6.89081 117.142 5.33122 116.432 5.84654 115.424L6.64829 113.898C7.16287 112.892 8.72284 113.602 8.1747 114.701L7.34185 116.165ZM10.6425 110.247C10.0374 111.222 8.60393 110.299 9.15032 109.353L9.98 107.889C10.6514 106.885 12.0807 107.81 11.4753 108.785L10.6425 110.247ZM14.096 104.333C13.4906 105.308 12.0603 104.384 12.6036 103.438L13.5258 102.009C14.1336 101.034 15.5643 101.958 15.02 102.902L14.096 104.333ZM17.7029 98.5761C17.1576 99.5215 15.6947 98.689 16.2708 97.6524L17.2583 96.1918C17.769 95.3385 19.2937 96.1416 18.6561 97.2082L17.7029 98.5761ZM21.5205 92.9477C20.8205 93.8899 19.5485 92.8137 20.151 91.9944L21.1389 90.5327C21.8657 89.6543 23.2028 90.6987 22.536 91.5495L21.5205 92.9477ZM25.5508 87.4464C24.8246 88.3262 23.5162 87.3421 24.2155 86.4003L25.2599 85.0649C25.9599 84.1227 27.2613 85.2607 26.598 86.1115L25.5508 87.4464ZM29.799 82.0724C29.0697 82.9528 27.7336 81.907 28.4612 81.0283L29.5081 79.6909C30.1728 78.8412 31.5706 79.8576 30.8438 80.736L29.799 82.0724ZM34.1309 76.8875C33.3101 77.7347 32.1319 76.5375 32.8899 75.7192L33.9639 74.4464C34.7858 73.5995 36.0557 74.829 35.2678 75.584L34.1309 76.8875ZM38.769 71.862C38.0128 72.6786 36.7107 71.541 37.4994 70.6315L38.6974 69.4531C39.4528 68.6369 40.6938 69.8035 39.937 70.6203L38.769 71.862ZM43.4985 67.022C42.5859 67.8371 41.5356 66.4268 42.2914 65.7636L43.5491 64.5551C44.4621 63.7407 45.4816 65.0881 44.7565 65.8142L43.4985 67.022ZM48.4382 62.3112C47.5891 63.0952 46.507 61.7775 47.3229 61.0849L48.6127 59.9386C49.4604 59.1535 50.6057 60.443 49.7273 61.1652L48.4382 62.3112ZM53.5911 57.8829C52.8353 58.5461 51.5957 57.3789 52.508 56.5631L53.8243 55.4817C54.8301 54.6999 55.7551 56.1687 54.9085 56.8001L53.5911 57.8829ZM58.9217 53.675C58.0141 54.3337 57.0266 52.8927 57.8715 52.263L59.2831 51.2121C60.1904 50.5527 61.1507 51.9291 60.2409 52.5888L58.9217 53.675ZM64.4059 49.6223C63.5611 50.252 62.4745 48.9338 63.4475 48.2442C63.8862 47.8829 64.3548 47.5848 64.8581 47.1928C65.6708 46.655 66.815 47.944 65.8459 48.6327C65.3126 48.9615 64.8743 49.3235 64.4059 49.6223ZM70.0699 45.7888C69.0669 46.417 68.2339 44.9803 69.1733 44.3831L70.578 43.4861C71.5796 42.8585 72.4447 44.3575 71.4756 44.8939L70.0699 45.7888ZM75.8799 42.2682C74.9432 42.8657 74.0175 41.3972 75.016 40.7703L76.5156 39.9066C77.4194 39.4012 78.379 40.7779 77.3169 41.4341L75.8799 42.2682ZM81.8101 38.9977C80.7495 39.5009 80.0728 37.9133 81.0084 37.4695L82.5377 36.6664C83.5955 36.1646 84.3053 37.6606 83.3394 38.1964L81.8101 38.9977ZM87.8918 35.8833C86.8938 36.3568 86.1207 34.8908 87.1524 34.3247C87.6504 34.0884 88.2109 33.8225 88.7089 33.5862C89.6451 33.142 90.5082 34.642 89.4483 35.1448C88.8878 35.4107 88.3898 35.647 87.8918 35.8833ZM94.1184 33.0814C92.9671 33.5511 92.4151 31.9035 93.4404 31.4928L94.9672 30.8459C96.056 30.4058 96.6691 32.0227 95.6438 32.4334L94.1184 33.0814ZM100.374 30.4947C99.3458 30.9067 98.6692 29.3192 99.7888 28.9403L101.408 28.3245C102.433 27.9145 103.018 29.4692 101.991 29.8788L100.374 30.4947ZM106.776 28.2215C105.783 28.5401 105.105 26.9525 106.224 26.5739C106.753 26.3995 107.342 26.1964 107.87 26.0234C108.836 25.641 109.512 27.2285 108.392 27.607C107.865 27.7811 107.338 27.9549 106.776 28.2215ZM113.237 26.0713C112.09 26.3867 111.754 24.714 112.777 24.458L114.453 23.9671C115.538 23.6814 115.937 25.3255 114.915 25.5819L113.237 26.0713ZM119.849 24.2322C118.761 24.5193 118.302 22.9053 119.388 22.6196L121.062 22.1301C122.087 21.8724 122.577 23.5493 121.49 23.8346L119.849 24.2322ZM126.421 22.6414C125.398 22.8978 124.908 21.2219 126.085 20.9687L127.729 20.5701C128.935 20.3808 129.117 22.0496 128.065 22.2442L126.421 22.6414ZM133.084 21.2346C131.938 21.3981 131.696 19.7573 132.748 19.5627L134.484 19.1979C135.628 19.0362 135.873 20.6757 134.756 20.9009L133.084 21.2346ZM139.772 20.0475C138.72 20.2421 138.383 18.568 139.5 18.3452L141.202 18.0716C142.256 17.877 142.681 19.5835 141.476 19.7735L139.772 20.0475Z" fill="#C19617"/>
</svg>
