<svg width="48" height="48" viewBox="0 0 48 48" fill="none" xmlns="http://www.w3.org/2000/svg">
<rect width="48" height="48" rx="24" fill="#215F67"/>
<path d="M14.2883 26.4874C14.4789 26.7493 14.7288 26.9624 15.0175 27.1092C15.3063 27.256 15.6257 27.3324 15.9496 27.332C16.1083 27.332 16.2763 27.3134 16.435 27.276C18.0683 26.8794 21.111 26.1234 24.0603 25.3067L22.6463 28.6434C22.581 28.788 22.5996 28.9514 22.6836 29.082C22.7723 29.2127 22.917 29.292 23.0756 29.292C24.247 29.292 25.3576 28.774 26.109 27.8687C27.0516 26.744 28.237 25.1714 28.741 23.9114C29.0396 23.8087 29.3243 23.7107 29.5903 23.6174C32.4696 22.5814 34.2056 21.8907 35.139 21.2C35.5776 20.8687 35.7643 20.318 35.6196 19.7954C35.5482 19.5415 35.4009 19.3156 35.1973 19.1479C34.9938 18.9802 34.7438 18.8788 34.481 18.8574L32.941 18.722C32.3856 18.6754 31.821 18.7594 31.3076 18.9647L25.5023 21.2747C23.9016 20.7754 21.2836 20.444 19.8323 20.29C18.941 20.192 18.073 20.5094 17.4523 21.1534C17.3403 21.2654 17.2936 21.4287 17.331 21.5827C17.3683 21.7367 17.4803 21.8627 17.6296 21.9187L20.9616 23.0854L17.1676 24.5927L14.3163 22.8334C14.2585 22.7969 14.1931 22.7741 14.1252 22.7668C14.0572 22.7595 13.9885 22.7679 13.9243 22.7914L12.6503 23.2207C12.5103 23.2674 12.3983 23.3794 12.3563 23.524C12.3096 23.664 12.3376 23.818 12.4263 23.9394L14.2883 26.4874Z" fill="#F9F5E8"/>
</svg>
