<svg width="24" height="24" viewBox="0 0 24 24" fill="none" xmlns="http://www.w3.org/2000/svg">
<path d="M7.00586 1.125C7.55814 1.125 8.00586 1.57272 8.00586 2.125L8.00586 6.62504L8.5884 6.62502C8.76403 6.62489 8.97969 6.62474 9.15613 6.64681L9.15947 6.64723C9.28592 6.66299 9.86196 6.73483 10.1363 7.30043C10.4113 7.86725 10.1093 8.36739 10.044 8.47559L9.70488 8.94409C9.41025 9.31992 9.00455 9.83437 8.62412 10.2254C8.43429 10.4205 8.21703 10.6217 7.98612 10.7806C7.78086 10.9218 7.43067 11.125 7 11.125C6.56933 11.125 6.21914 10.9218 6.01388 10.7806C5.78297 10.6217 5.56571 10.4205 5.37588 10.2254C4.99545 9.83437 4.58975 9.31991 4.29511 8.94408L3.95597 8.4756C3.89065 8.36739 3.58872 7.86725 3.86368 7.30043C4.13804 6.73483 4.71408 6.663 4.84053 6.64723L4.84387 6.64681C5.02031 6.62474 5.23596 6.62489 5.4116 6.62502L6.00586 6.62504L6.00586 2.125C6.00586 1.57272 6.45357 1.125 7.00586 1.125Z" fill="#008270"/>
<path d="M12.8073 1.37497C14.3484 1.37495 15.5812 1.37494 16.5635 1.4777C17.5729 1.58329 18.4341 1.80638 19.1789 2.33304C19.5692 2.60909 19.9178 2.93787 20.213 3.31035C20.7828 4.02942 21.026 4.8673 21.1402 5.8407C21.25 6.77803 21.25 7.95068 21.25 9.39877V11.9823C21.25 13.4005 21.25 14.5132 21.1908 15.4139C21.1306 16.3307 21.006 17.0955 20.7249 17.8074C19.8815 19.9435 18.1078 21.6062 15.8878 22.3884C14.5054 22.8755 12.8187 22.8753 9.97909 22.8749C8.42408 22.8754 6.952 22.8758 6.0932 22.5732C4.71664 22.0882 3.60821 21.054 3.0794 19.7147C2.89613 19.2505 2.82052 18.7648 2.78473 18.2202C2.74999 17.6916 2.74999 17.0441 2.75 16.2449V12.0986C2.75 11.5609 3.18594 11.1249 3.72369 11.1249C4.26145 11.1249 4.69739 11.5609 4.69739 12.0986V16.2117C4.69739 17.052 4.69788 17.6349 4.72789 18.0916C4.75733 18.5395 4.81217 18.798 4.88981 18.9946C5.1999 19.78 5.8656 20.4216 6.73823 20.7291C7.24159 20.9064 7.90872 20.9204 9.74284 20.9204C10.0409 20.9204 10.3977 20.9192 10.7358 20.9177C11.074 20.9162 11.6274 20.9137 12.0895 20.6448C12.3943 20.4674 12.615 20.2656 12.7417 20.045C12.9591 19.6666 13.0835 19.2594 13.0835 18.7917L13.047 17.7514C13.0391 17.3713 13.0511 16.9277 13.1658 16.4996C13.3893 15.6656 14.0407 15.0142 14.8746 14.7907C15.3028 14.676 15.7463 14.664 16.1264 14.6719L17.1668 14.7084C17.6135 14.7084 18.0336 14.595 18.4002 14.3955C18.6276 14.2717 18.849 14.0286 19.022 13.7376C19.3026 13.2654 19.3027 12.6269 19.3027 12.3599L19.3026 9.45968C19.3026 7.93623 19.3011 6.8789 19.2061 6.06914C19.1139 5.28235 18.9445 4.84956 18.6889 4.52707C18.5111 4.30271 18.2987 4.10162 18.0573 3.93087C17.6994 3.67783 17.2155 3.51107 16.3616 3.42174C15.4922 3.33079 14.361 3.32954 12.7524 3.32954H11.9773C11.4375 3.32954 11 2.892 11 2.35226C11 1.81252 11.4375 1.37497 11.9773 1.37497H12.8073Z" fill="#008270"/>
</svg>
