<svg width="56" height="56" viewBox="0 0 56 56" fill="none" xmlns="http://www.w3.org/2000/svg">
<rect width="56" height="56" rx="28" fill="#215F67"/>
<path fill-rule="evenodd" clip-rule="evenodd" d="M28 17.3332C22.8453 17.3332 18.6667 21.5118 18.6667 26.6665C18.6667 29.608 20.4481 32.3571 22.9399 34.5167L27.5285 38.4934C27.7991 38.728 28.2009 38.728 28.4715 38.4934L33.0601 34.5167C35.5519 32.3571 37.3333 29.608 37.3333 26.6665C37.3333 21.5118 33.1547 17.3332 28 17.3332ZM16 26.6665C16 20.0391 21.3726 14.6665 28 14.6665C34.6274 14.6665 40 20.0391 40 26.6665C40 30.7017 37.587 34.1222 34.8066 36.5318L30.218 40.5086C28.9451 41.6118 27.0549 41.6118 25.782 40.5086L21.1934 36.5319C18.413 34.1222 16 30.7017 16 26.6665Z" fill="white"/>
<path d="M30.6654 26.6662C30.6654 28.1389 29.4715 29.3328 27.9987 29.3328C26.5259 29.3328 25.332 28.1389 25.332 26.6662C25.332 25.1934 26.5259 23.9995 27.9987 23.9995C29.4715 23.9995 30.6654 25.1934 30.6654 26.6662Z" fill="white"/>
</svg>
