<svg width="32" height="32" viewBox="0 0 32 32" fill="none" xmlns="http://www.w3.org/2000/svg">
<path d="M31.9782 3.22923C32.1342 2.50305 31.4223 1.89074 30.7278 2.15574L0.603101 13.6556C0.425991 13.7232 0.273542 13.843 0.165872 13.999C0.0582009 14.155 0.000367284 14.3401 1.74356e-06 14.5296C-0.000363797 14.7192 0.0567559 14.9045 0.163824 15.0609C0.270892 15.2174 0.422878 15.3377 0.599727 15.406L9.06233 18.6744V28.9688C9.06231 29.1798 9.13345 29.3846 9.26422 29.5501C9.395 29.7156 9.57778 29.8322 9.78301 29.881C9.98825 29.9298 10.2039 29.9079 10.3952 29.819C10.5865 29.73 10.7422 29.5791 10.8371 29.3907L14.3371 22.4453L22.8785 28.7842C23.3981 29.1698 24.1449 28.9245 24.3339 28.3049C32.3088 2.1578 31.964 3.29491 31.9782 3.22923ZM24.542 6.52407L9.86695 16.9752L3.55276 14.5366L24.542 6.52407ZM10.9373 18.5147L23.7289 9.40498C12.7219 21.0167 13.2968 20.4056 13.2488 20.4702C13.1775 20.5661 13.3729 20.1922 10.9373 25.0253V18.5147ZM22.9283 26.4862L15.4099 20.9066L29.0042 6.56532L22.9283 26.4862Z" fill="#215F67"/>
</svg>
