<svg width="32" height="32" viewBox="0 0 32 32" fill="none" xmlns="http://www.w3.org/2000/svg">
<path d="M30.76 9.35L24.76 2.35C24.5578 2.1451 24.288 2.0207 24.001 2H9.00095C8.74078 2.02271 8.49392 2.12502 8.29395 2.293L1.29395 9.293L1.28995 9.299C1.12547 9.46984 1.02593 9.69283 1.00858 9.92934C0.991233 10.1659 1.05716 10.401 1.19495 10.594L15.195 29.594C15.2882 29.7197 15.4095 29.8219 15.5493 29.8923C15.6891 29.9627 15.8434 29.9994 16 29.9994C16.1565 29.9994 16.3108 29.9627 16.4506 29.8923C16.5904 29.8219 16.7118 29.7197 16.805 29.594L30.805 10.594C30.9377 10.4113 31.0054 10.1894 30.9973 9.96374C30.9891 9.73805 30.9056 9.52162 30.76 9.349V9.35ZM8.48495 4.93L9.58095 9H4.41495L8.48495 4.93ZM20.493 11L16.065 25.392L12.191 11H20.493ZM12.855 9L16.054 4.623L19.709 9H12.855ZM18.139 4H22.647L21.433 7.944L18.139 4ZM11.309 7.726L10.306 4H14.032L11.309 7.726ZM10.119 11L13.654 24.129L3.97995 11H10.119ZM22.586 11H28.022L18.688 23.668L22.586 11ZM23.201 9L24.423 5.029L27.827 9H23.201Z" fill="#215F67"/>
</svg>
