<svg width="32" height="32" viewBox="0 0 32 32" fill="none" xmlns="http://www.w3.org/2000/svg">
<g clip-path="url(#clip0_2512_4525)">
<path fill-rule="evenodd" clip-rule="evenodd" d="M10.6065 10.6563C11.0461 10.9906 11.1315 11.618 10.7971 12.0576C9.96195 13.1557 9.4668 14.5213 9.4668 16.0001C9.4668 19.5966 12.4029 22.5327 15.9994 22.5327C19.5959 22.5327 22.532 19.5966 22.532 16.0001C22.532 14.5213 22.0369 13.1557 21.2017 12.0575C20.8674 11.618 20.9527 10.9906 21.3923 10.6562C21.8319 10.3219 22.4593 10.4073 22.7936 10.8469C23.8829 12.2792 24.532 14.0668 24.532 16.0001C24.532 20.7012 20.7005 24.5327 15.9994 24.5327C11.2983 24.5327 7.4668 20.7012 7.4668 16.0001C7.4668 14.0668 8.11589 12.2791 9.20522 10.8468C9.53956 10.4072 10.1669 10.3219 10.6065 10.6563Z" fill="#215F67"/>
<path fill-rule="evenodd" clip-rule="evenodd" d="M2.09748 16C5.14609 21.0121 10.2578 24.25 16 24.25C21.7422 24.25 26.8539 21.0121 29.9025 16C26.8539 10.9879 21.7422 7.75 16 7.75C10.2578 7.75 5.14609 10.9879 2.09748 16ZM0.0680918 15.5059C3.37903 9.67998 9.25204 5.75 16 5.75C22.748 5.75 28.621 9.67998 31.9319 15.5059C32.106 15.8123 32.106 16.1877 31.9319 16.4941C28.621 22.32 22.748 26.25 16 26.25C9.25204 26.25 3.37903 22.32 0.0680918 16.4941C-0.106031 16.1877 -0.106031 15.8123 0.0680918 15.5059Z" fill="#215F67"/>
<path fill-rule="evenodd" clip-rule="evenodd" d="M1.64599 16.7421C1.64578 16.7422 1.6462 16.7419 1.64599 16.7421L1.58871 16.7897C1.1641 17.1429 0.533588 17.0849 0.180422 16.6603C-0.172743 16.2357 -0.114827 15.6052 0.309782 15.2521L0.369122 15.2027C4.67091 11.6344 10.0981 9.5 15.9999 9.5C21.8723 9.5 27.2749 11.6132 31.5664 15.1496C31.9927 15.5008 32.0535 16.131 31.7022 16.5572C31.351 16.9835 30.7208 17.0443 30.2946 16.6931C26.3391 13.4337 21.3805 11.5 15.9999 11.5C10.5927 11.5 5.61098 13.4534 1.64599 16.7421Z" fill="#215F67"/>
<circle cx="15.9395" cy="17.0215" r="2.5" fill="#215F67"/>
</g>
<defs>
<clipPath id="clip0_2512_4525">
<rect width="32" height="32" fill="white"/>
</clipPath>
</defs>
</svg>
